<mxfile host="65bd71144e">
    <diagram id="8unvSzZc5b7AhLQEv18w" name="第 1 页">
        <mxGraphModel dx="1005" dy="739" grid="1" gridSize="10" guides="1" tooltips="1" connect="1" arrows="1" fold="1" page="1" pageScale="1" pageWidth="827" pageHeight="1169" math="0" shadow="0">
            <root>
                <mxCell id="0"/>
                <mxCell id="1" parent="0"/>
                <mxCell id="99" value="" style="pointerEvents=1;verticalLabelPosition=bottom;shadow=0;dashed=0;align=center;html=1;verticalAlign=top;shape=mxgraph.electrical.waveforms.pulse_2;container=0;" parent="1" vertex="1">
                    <mxGeometry x="331.5502958579882" y="170" width="51.550295857988175" height="39.130434782608695" as="geometry"/>
                </mxCell>
                <mxCell id="100" value="" style="pointerEvents=1;verticalLabelPosition=bottom;shadow=0;dashed=0;align=center;html=1;verticalAlign=top;shape=mxgraph.electrical.waveforms.pulse_2;container=0;" parent="1" vertex="1">
                    <mxGeometry x="383.10059171597635" y="170" width="51.550295857988175" height="39.130434782608695" as="geometry"/>
                </mxCell>
                <mxCell id="101" value="" style="pointerEvents=1;verticalLabelPosition=bottom;shadow=0;dashed=0;align=center;html=1;verticalAlign=top;shape=mxgraph.electrical.waveforms.pulse_2;container=0;" parent="1" vertex="1">
                    <mxGeometry x="537.7514792899408" y="170" width="51.550295857988175" height="39.130434782608695" as="geometry"/>
                </mxCell>
                <mxCell id="102" value="" style="pointerEvents=1;verticalLabelPosition=bottom;shadow=0;dashed=0;align=center;html=1;verticalAlign=top;shape=mxgraph.electrical.waveforms.pulse_2;container=0;" parent="1" vertex="1">
                    <mxGeometry x="285.00224852071005" y="219.00652173913045" width="116.27455621301772" height="39.130434782608695" as="geometry"/>
                </mxCell>
                <mxCell id="103" value="" style="pointerEvents=1;verticalLabelPosition=bottom;shadow=0;dashed=0;align=center;html=1;verticalAlign=top;shape=mxgraph.electrical.waveforms.pulse_2;container=0;" parent="1" vertex="1">
                    <mxGeometry x="589.301775147929" y="170" width="51.550295857988175" height="39.130434782608695" as="geometry"/>
                </mxCell>
                <mxCell id="104" value="" style="pointerEvents=1;verticalLabelPosition=bottom;shadow=0;dashed=0;align=center;html=1;verticalAlign=top;shape=mxgraph.electrical.waveforms.pulse_2;container=0;" parent="1" vertex="1">
                    <mxGeometry x="688.9656804733728" y="170" width="51.550295857988175" height="39.130434782608695" as="geometry"/>
                </mxCell>
                <mxCell id="105" value="" style="pointerEvents=1;verticalLabelPosition=bottom;shadow=0;dashed=0;align=center;html=1;verticalAlign=top;shape=mxgraph.electrical.waveforms.pulse_2;container=0;" parent="1" vertex="1">
                    <mxGeometry x="486.2011834319527" y="170" width="51.550295857988175" height="39.130434782608695" as="geometry"/>
                </mxCell>
                <mxCell id="106" value="" style="pointerEvents=1;verticalLabelPosition=bottom;shadow=0;dashed=0;align=center;html=1;verticalAlign=top;shape=mxgraph.electrical.waveforms.pulse_2;container=0;" parent="1" vertex="1">
                    <mxGeometry x="640.8520710059171" y="170" width="51.550295857988175" height="39.130434782608695" as="geometry"/>
                </mxCell>
                <mxCell id="107" value="" style="pointerEvents=1;verticalLabelPosition=bottom;shadow=0;dashed=0;align=center;html=1;verticalAlign=top;shape=mxgraph.electrical.waveforms.pulse_2;container=0;" parent="1" vertex="1">
                    <mxGeometry x="280" y="170" width="51.550295857988175" height="39.130434782608695" as="geometry"/>
                </mxCell>
                <mxCell id="108" value="" style="pointerEvents=1;verticalLabelPosition=bottom;shadow=0;dashed=0;align=center;html=1;verticalAlign=top;shape=mxgraph.electrical.waveforms.pulse_2;container=0;" parent="1" vertex="1">
                    <mxGeometry x="434.6508875739645" y="170" width="51.550295857988175" height="39.130434782608695" as="geometry"/>
                </mxCell>
                <mxCell id="109" value="" style="pointerEvents=1;verticalLabelPosition=bottom;shadow=0;dashed=0;align=center;html=1;verticalAlign=top;shape=mxgraph.electrical.waveforms.pulse_2;container=0;" parent="1" vertex="1">
                    <mxGeometry x="388.25562130177514" y="306.52173913043475" width="116.27455621301772" height="39.130434782608695" as="geometry"/>
                </mxCell>
                <mxCell id="110" value="" style="pointerEvents=1;verticalLabelPosition=bottom;shadow=0;dashed=0;align=center;html=1;verticalAlign=top;shape=mxgraph.electrical.waveforms.pulse_2;container=0;" parent="1" vertex="1">
                    <mxGeometry x="648.01" y="530.87" width="107.99" height="39.13" as="geometry"/>
                </mxCell>
                <mxCell id="111" value="" style="pointerEvents=1;verticalLabelPosition=bottom;shadow=0;dashed=0;align=center;html=1;verticalAlign=top;shape=mxgraph.electrical.waveforms.pulse_2;container=0;" parent="1" vertex="1">
                    <mxGeometry x="439.80591715976334" y="351.30434782608694" width="116.27455621301772" height="39.130434782608695" as="geometry"/>
                </mxCell>
                <mxCell id="112" value="" style="pointerEvents=1;verticalLabelPosition=bottom;shadow=0;dashed=0;align=center;html=1;verticalAlign=top;shape=mxgraph.electrical.waveforms.pulse_2;container=0;" parent="1" vertex="1">
                    <mxGeometry x="336.13254437869824" y="261.7391304347826" width="116.27455621301772" height="39.130434782608695" as="geometry"/>
                </mxCell>
                <mxCell id="113" value="" style="pointerEvents=1;verticalLabelPosition=bottom;shadow=0;dashed=0;align=center;html=1;verticalAlign=top;shape=mxgraph.electrical.waveforms.pulse_2;container=0;" parent="1" vertex="1">
                    <mxGeometry x="491.35621301775154" y="396.52173913043475" width="116.27455621301772" height="39.130434782608695" as="geometry"/>
                </mxCell>
                <mxCell id="114" value="" style="pointerEvents=1;verticalLabelPosition=bottom;shadow=0;dashed=0;align=center;html=1;verticalAlign=top;shape=mxgraph.electrical.waveforms.pulse_2;container=0;" parent="1" vertex="1">
                    <mxGeometry x="594.4568047337277" y="486.0869565217391" width="116.27455621301772" height="39.130434782608695" as="geometry"/>
                </mxCell>
                <mxCell id="115" value="" style="pointerEvents=1;verticalLabelPosition=bottom;shadow=0;dashed=0;align=center;html=1;verticalAlign=top;shape=mxgraph.electrical.waveforms.pulse_2;container=0;" parent="1" vertex="1">
                    <mxGeometry x="542.9065088757396" y="441.30434782608694" width="116.27455621301772" height="39.130434782608695" as="geometry"/>
                </mxCell>
                <mxCell id="116" value="" style="endArrow=none;html=1;exitX=0.789;exitY=0;exitDx=0;exitDy=0;exitPerimeter=0;" parent="1" source="104" edge="1">
                    <mxGeometry width="50" height="50" relative="1" as="geometry">
                        <mxPoint x="562.9538461538461" y="400.4347826086956" as="sourcePoint"/>
                        <mxPoint x="757.6994082840238" y="170" as="targetPoint"/>
                    </mxGeometry>
                </mxCell>
                <mxCell id="117" value="" style="endArrow=none;html=1;entryX=0.719;entryY=0.022;entryDx=0;entryDy=0;entryPerimeter=0;" parent="1" edge="1">
                    <mxGeometry width="50" height="50" relative="1" as="geometry">
                        <mxPoint x="724.42" y="219.04999999999995" as="sourcePoint"/>
                        <mxPoint x="368.60365443786975" y="218.9978260869566" as="targetPoint"/>
                    </mxGeometry>
                </mxCell>
                <mxCell id="118" value="" style="endArrow=none;html=1;entryX=0.719;entryY=0.022;entryDx=0;entryDy=0;entryPerimeter=0;" parent="1" edge="1">
                    <mxGeometry width="50" height="50" relative="1" as="geometry">
                        <mxPoint x="763.4272189349111" y="261.7391304347826" as="sourcePoint"/>
                        <mxPoint x="448.3959147928993" y="261.7391304347826" as="targetPoint"/>
                    </mxGeometry>
                </mxCell>
                <mxCell id="119" value="" style="endArrow=none;html=1;entryX=0.719;entryY=0.022;entryDx=0;entryDy=0;entryPerimeter=0;" parent="1" edge="1">
                    <mxGeometry width="50" height="50" relative="1" as="geometry">
                        <mxPoint x="763.4272189349111" y="306.52173913043475" as="sourcePoint"/>
                        <mxPoint x="482.7627786982247" y="306.52173913043475" as="targetPoint"/>
                    </mxGeometry>
                </mxCell>
                <mxCell id="120" value="" style="endArrow=none;html=1;" parent="1" edge="1">
                    <mxGeometry width="50" height="50" relative="1" as="geometry">
                        <mxPoint x="764" y="351.30434782608694" as="sourcePoint"/>
                        <mxPoint x="523.4319526627219" y="351.30434782608694" as="targetPoint"/>
                    </mxGeometry>
                </mxCell>
                <mxCell id="121" value="" style="endArrow=none;html=1;" parent="1" edge="1">
                    <mxGeometry width="50" height="50" relative="1" as="geometry">
                        <mxPoint x="761.1360946745563" y="396.52173913043475" as="sourcePoint"/>
                        <mxPoint x="583.5739644970414" y="396.52173913043475" as="targetPoint"/>
                    </mxGeometry>
                </mxCell>
                <mxCell id="122" value="" style="endArrow=none;html=1;" parent="1" edge="1">
                    <mxGeometry width="50" height="50" relative="1" as="geometry">
                        <mxPoint x="763.4272189349111" y="441.30434782608694" as="sourcePoint"/>
                        <mxPoint x="631.687573964497" y="441.30434782608694" as="targetPoint"/>
                    </mxGeometry>
                </mxCell>
                <mxCell id="123" value="" style="endArrow=none;html=1;" parent="1" edge="1">
                    <mxGeometry width="50" height="50" relative="1" as="geometry">
                        <mxPoint x="763.4272189349111" y="486.0869565217391" as="sourcePoint"/>
                        <mxPoint x="688.9656804733728" y="486.0869565217391" as="targetPoint"/>
                    </mxGeometry>
                </mxCell>
                <mxCell id="124" value="" style="endArrow=none;html=1;" parent="1" edge="1">
                    <mxGeometry width="50" height="50" relative="1" as="geometry">
                        <mxPoint x="354.46153846153845" y="261.7391304347826" as="sourcePoint"/>
                        <mxPoint x="280" y="261.7391304347826" as="targetPoint"/>
                    </mxGeometry>
                </mxCell>
                <mxCell id="125" value="" style="endArrow=none;html=1;" parent="1" edge="1">
                    <mxGeometry width="50" height="50" relative="1" as="geometry">
                        <mxPoint x="388.25562130177514" y="306.52173913043475" as="sourcePoint"/>
                        <mxPoint x="282.29112426035505" y="306.52173913043475" as="targetPoint"/>
                    </mxGeometry>
                </mxCell>
                <mxCell id="126" value="" style="endArrow=none;html=1;" parent="1" edge="1">
                    <mxGeometry width="50" height="50" relative="1" as="geometry">
                        <mxPoint x="447.2520710059172" y="351.30434782608694" as="sourcePoint"/>
                        <mxPoint x="282.29112426035505" y="351.30434782608694" as="targetPoint"/>
                    </mxGeometry>
                </mxCell>
                <mxCell id="127" value="" style="endArrow=none;html=1;" parent="1" edge="1">
                    <mxGeometry width="50" height="50" relative="1" as="geometry">
                        <mxPoint x="496.5112426035503" y="396.52173913043475" as="sourcePoint"/>
                        <mxPoint x="282.29112426035505" y="396.52173913043475" as="targetPoint"/>
                    </mxGeometry>
                </mxCell>
                <mxCell id="128" value="" style="endArrow=none;html=1;" parent="1" edge="1">
                    <mxGeometry width="50" height="50" relative="1" as="geometry">
                        <mxPoint x="542.9065088757396" y="441.30434782608694" as="sourcePoint"/>
                        <mxPoint x="282.29112426035505" y="441.30434782608694" as="targetPoint"/>
                    </mxGeometry>
                </mxCell>
                <mxCell id="129" value="" style="endArrow=none;html=1;" parent="1" edge="1">
                    <mxGeometry width="50" height="50" relative="1" as="geometry">
                        <mxPoint x="594.4568047337277" y="486.0869565217391" as="sourcePoint"/>
                        <mxPoint x="282.29112426035505" y="486.0869565217391" as="targetPoint"/>
                    </mxGeometry>
                </mxCell>
                <mxCell id="130" value="" style="endArrow=none;html=1;" parent="1" edge="1">
                    <mxGeometry width="50" height="50" relative="1" as="geometry">
                        <mxPoint x="648.2982248520709" y="530.8695652173913" as="sourcePoint"/>
                        <mxPoint x="282.29112426035505" y="530.8695652173913" as="targetPoint"/>
                    </mxGeometry>
                </mxCell>
                <mxCell id="54" value="" style="pointerEvents=1;verticalLabelPosition=bottom;shadow=0;dashed=0;align=center;html=1;verticalAlign=top;shape=mxgraph.electrical.waveforms.pulse_2;container=0;" parent="1" vertex="1">
                    <mxGeometry x="741.5502958579882" y="170" width="51.550295857988175" height="39.130434782608695" as="geometry"/>
                </mxCell>
                <mxCell id="56" value="" style="pointerEvents=1;verticalLabelPosition=bottom;shadow=0;dashed=0;align=center;html=1;verticalAlign=top;shape=mxgraph.electrical.waveforms.pulse_2;container=0;" parent="1" vertex="1">
                    <mxGeometry x="793.1005917159764" y="170" width="51.550295857988175" height="39.130434782608695" as="geometry"/>
                </mxCell>
                <mxCell id="58" value="" style="pointerEvents=1;verticalLabelPosition=bottom;shadow=0;dashed=0;align=center;html=1;verticalAlign=top;shape=mxgraph.electrical.waveforms.pulse_2;container=0;" parent="1" vertex="1">
                    <mxGeometry x="947.7514792899408" y="170" width="51.550295857988175" height="39.130434782608695" as="geometry"/>
                </mxCell>
                <mxCell id="59" value="" style="pointerEvents=1;verticalLabelPosition=bottom;shadow=0;dashed=0;align=center;html=1;verticalAlign=top;shape=mxgraph.electrical.waveforms.pulse_2;container=0;" parent="1" vertex="1">
                    <mxGeometry x="695.0022485207099" y="219.00652173913045" width="116.27455621301772" height="39.130434782608695" as="geometry"/>
                </mxCell>
                <mxCell id="60" value="" style="pointerEvents=1;verticalLabelPosition=bottom;shadow=0;dashed=0;align=center;html=1;verticalAlign=top;shape=mxgraph.electrical.waveforms.pulse_2;container=0;" parent="1" vertex="1">
                    <mxGeometry x="999.301775147929" y="170" width="51.550295857988175" height="39.130434782608695" as="geometry"/>
                </mxCell>
                <mxCell id="61" value="" style="pointerEvents=1;verticalLabelPosition=bottom;shadow=0;dashed=0;align=center;html=1;verticalAlign=top;shape=mxgraph.electrical.waveforms.pulse_2;container=0;" parent="1" vertex="1">
                    <mxGeometry x="1098.9656804733727" y="170" width="51.550295857988175" height="39.130434782608695" as="geometry"/>
                </mxCell>
                <mxCell id="62" value="" style="pointerEvents=1;verticalLabelPosition=bottom;shadow=0;dashed=0;align=center;html=1;verticalAlign=top;shape=mxgraph.electrical.waveforms.pulse_2;container=0;" parent="1" vertex="1">
                    <mxGeometry x="896.2011834319527" y="170" width="51.550295857988175" height="39.130434782608695" as="geometry"/>
                </mxCell>
                <mxCell id="63" value="" style="pointerEvents=1;verticalLabelPosition=bottom;shadow=0;dashed=0;align=center;html=1;verticalAlign=top;shape=mxgraph.electrical.waveforms.pulse_2;container=0;" parent="1" vertex="1">
                    <mxGeometry x="1050.852071005917" y="170" width="51.550295857988175" height="39.130434782608695" as="geometry"/>
                </mxCell>
                <mxCell id="64" value="" style="pointerEvents=1;verticalLabelPosition=bottom;shadow=0;dashed=0;align=center;html=1;verticalAlign=top;shape=mxgraph.electrical.waveforms.pulse_2;container=0;" parent="1" vertex="1">
                    <mxGeometry x="690" y="170" width="51.550295857988175" height="39.130434782608695" as="geometry"/>
                </mxCell>
                <mxCell id="65" value="" style="pointerEvents=1;verticalLabelPosition=bottom;shadow=0;dashed=0;align=center;html=1;verticalAlign=top;shape=mxgraph.electrical.waveforms.pulse_2;container=0;" parent="1" vertex="1">
                    <mxGeometry x="844.6508875739645" y="170" width="51.550295857988175" height="39.130434782608695" as="geometry"/>
                </mxCell>
                <mxCell id="66" value="" style="pointerEvents=1;verticalLabelPosition=bottom;shadow=0;dashed=0;align=center;html=1;verticalAlign=top;shape=mxgraph.electrical.waveforms.pulse_2;container=0;" parent="1" vertex="1">
                    <mxGeometry x="798.2556213017751" y="306.52173913043475" width="116.27455621301772" height="39.130434782608695" as="geometry"/>
                </mxCell>
                <mxCell id="69" value="" style="pointerEvents=1;verticalLabelPosition=bottom;shadow=0;dashed=0;align=center;html=1;verticalAlign=top;shape=mxgraph.electrical.waveforms.pulse_2;container=0;" parent="1" vertex="1">
                    <mxGeometry x="1056.007100591716" y="530.8695652173913" width="116.27455621301772" height="39.130434782608695" as="geometry"/>
                </mxCell>
                <mxCell id="70" value="" style="pointerEvents=1;verticalLabelPosition=bottom;shadow=0;dashed=0;align=center;html=1;verticalAlign=top;shape=mxgraph.electrical.waveforms.pulse_2;container=0;" parent="1" vertex="1">
                    <mxGeometry x="849.8059171597633" y="351.30434782608694" width="116.27455621301772" height="39.130434782608695" as="geometry"/>
                </mxCell>
                <mxCell id="71" value="" style="pointerEvents=1;verticalLabelPosition=bottom;shadow=0;dashed=0;align=center;html=1;verticalAlign=top;shape=mxgraph.electrical.waveforms.pulse_2;container=0;" parent="1" vertex="1">
                    <mxGeometry x="746.1325443786982" y="261.7391304347826" width="116.27455621301772" height="39.130434782608695" as="geometry"/>
                </mxCell>
                <mxCell id="72" value="" style="pointerEvents=1;verticalLabelPosition=bottom;shadow=0;dashed=0;align=center;html=1;verticalAlign=top;shape=mxgraph.electrical.waveforms.pulse_2;container=0;" parent="1" vertex="1">
                    <mxGeometry x="901.3562130177515" y="396.52173913043475" width="116.27455621301772" height="39.130434782608695" as="geometry"/>
                </mxCell>
                <mxCell id="73" value="" style="pointerEvents=1;verticalLabelPosition=bottom;shadow=0;dashed=0;align=center;html=1;verticalAlign=top;shape=mxgraph.electrical.waveforms.pulse_2;container=0;" parent="1" vertex="1">
                    <mxGeometry x="1004.4568047337277" y="486.0869565217391" width="116.27455621301772" height="39.130434782608695" as="geometry"/>
                </mxCell>
                <mxCell id="75" value="" style="pointerEvents=1;verticalLabelPosition=bottom;shadow=0;dashed=0;align=center;html=1;verticalAlign=top;shape=mxgraph.electrical.waveforms.pulse_2;container=0;" parent="1" vertex="1">
                    <mxGeometry x="952.9065088757396" y="441.30434782608694" width="116.27455621301772" height="39.130434782608695" as="geometry"/>
                </mxCell>
                <mxCell id="78" value="" style="endArrow=none;html=1;exitX=0.789;exitY=0;exitDx=0;exitDy=0;exitPerimeter=0;" parent="1" source="61" edge="1">
                    <mxGeometry width="50" height="50" relative="1" as="geometry">
                        <mxPoint x="972.9538461538461" y="400.4347826086956" as="sourcePoint"/>
                        <mxPoint x="1167.6994082840238" y="170" as="targetPoint"/>
                    </mxGeometry>
                </mxCell>
                <mxCell id="81" value="" style="endArrow=none;html=1;entryX=0.719;entryY=0.022;entryDx=0;entryDy=0;entryPerimeter=0;" parent="1" edge="1">
                    <mxGeometry width="50" height="50" relative="1" as="geometry">
                        <mxPoint x="1173.4272189349113" y="261.7391304347826" as="sourcePoint"/>
                        <mxPoint x="858.3959147928992" y="261.7391304347826" as="targetPoint"/>
                    </mxGeometry>
                </mxCell>
                <mxCell id="82" value="" style="endArrow=none;html=1;entryX=0.719;entryY=0.022;entryDx=0;entryDy=0;entryPerimeter=0;" parent="1" edge="1">
                    <mxGeometry width="50" height="50" relative="1" as="geometry">
                        <mxPoint x="1173.4272189349113" y="306.52173913043475" as="sourcePoint"/>
                        <mxPoint x="892.7627786982247" y="306.52173913043475" as="targetPoint"/>
                    </mxGeometry>
                </mxCell>
                <mxCell id="83" value="" style="endArrow=none;html=1;" parent="1" edge="1">
                    <mxGeometry width="50" height="50" relative="1" as="geometry">
                        <mxPoint x="1174" y="351.30434782608694" as="sourcePoint"/>
                        <mxPoint x="933.4319526627219" y="351.30434782608694" as="targetPoint"/>
                    </mxGeometry>
                </mxCell>
                <mxCell id="84" value="" style="endArrow=none;html=1;" parent="1" edge="1">
                    <mxGeometry width="50" height="50" relative="1" as="geometry">
                        <mxPoint x="1171.1360946745563" y="396.52173913043475" as="sourcePoint"/>
                        <mxPoint x="993.5739644970414" y="396.52173913043475" as="targetPoint"/>
                    </mxGeometry>
                </mxCell>
                <mxCell id="85" value="" style="endArrow=none;html=1;" parent="1" edge="1">
                    <mxGeometry width="50" height="50" relative="1" as="geometry">
                        <mxPoint x="1173.4272189349113" y="441.30434782608694" as="sourcePoint"/>
                        <mxPoint x="1041.687573964497" y="441.30434782608694" as="targetPoint"/>
                    </mxGeometry>
                </mxCell>
                <mxCell id="86" value="" style="endArrow=none;html=1;" parent="1" edge="1">
                    <mxGeometry width="50" height="50" relative="1" as="geometry">
                        <mxPoint x="1173.4272189349113" y="486.0869565217391" as="sourcePoint"/>
                        <mxPoint x="1098.9656804733727" y="486.0869565217391" as="targetPoint"/>
                    </mxGeometry>
                </mxCell>
                <mxCell id="89" value="" style="endArrow=none;html=1;" parent="1" edge="1">
                    <mxGeometry width="50" height="50" relative="1" as="geometry">
                        <mxPoint x="764.4615384615385" y="261.7391304347826" as="sourcePoint"/>
                        <mxPoint x="690" y="261.7391304347826" as="targetPoint"/>
                    </mxGeometry>
                </mxCell>
                <mxCell id="90" value="" style="endArrow=none;html=1;" parent="1" edge="1">
                    <mxGeometry width="50" height="50" relative="1" as="geometry">
                        <mxPoint x="798.2556213017751" y="306.52173913043475" as="sourcePoint"/>
                        <mxPoint x="692.291124260355" y="306.52173913043475" as="targetPoint"/>
                    </mxGeometry>
                </mxCell>
                <mxCell id="91" value="" style="endArrow=none;html=1;" parent="1" edge="1">
                    <mxGeometry width="50" height="50" relative="1" as="geometry">
                        <mxPoint x="857.2520710059172" y="351.30434782608694" as="sourcePoint"/>
                        <mxPoint x="692.291124260355" y="351.30434782608694" as="targetPoint"/>
                    </mxGeometry>
                </mxCell>
                <mxCell id="92" value="" style="endArrow=none;html=1;" parent="1" edge="1">
                    <mxGeometry width="50" height="50" relative="1" as="geometry">
                        <mxPoint x="906.5112426035503" y="396.52173913043475" as="sourcePoint"/>
                        <mxPoint x="692.291124260355" y="396.52173913043475" as="targetPoint"/>
                    </mxGeometry>
                </mxCell>
                <mxCell id="93" value="" style="endArrow=none;html=1;" parent="1" edge="1">
                    <mxGeometry width="50" height="50" relative="1" as="geometry">
                        <mxPoint x="952.9065088757396" y="441.30434782608694" as="sourcePoint"/>
                        <mxPoint x="692.291124260355" y="441.30434782608694" as="targetPoint"/>
                    </mxGeometry>
                </mxCell>
                <mxCell id="94" value="" style="endArrow=none;html=1;" parent="1" edge="1">
                    <mxGeometry width="50" height="50" relative="1" as="geometry">
                        <mxPoint x="1004.4568047337277" y="486.0869565217391" as="sourcePoint"/>
                        <mxPoint x="692.291124260355" y="486.0869565217391" as="targetPoint"/>
                    </mxGeometry>
                </mxCell>
                <mxCell id="95" value="" style="endArrow=none;html=1;" parent="1" edge="1">
                    <mxGeometry width="50" height="50" relative="1" as="geometry">
                        <mxPoint x="1058.298224852071" y="530.8695652173913" as="sourcePoint"/>
                        <mxPoint x="734" y="531" as="targetPoint"/>
                    </mxGeometry>
                </mxCell>
                <mxCell id="151" value="" style="endArrow=none;html=1;entryX=0.998;entryY=-0.026;entryDx=0;entryDy=0;entryPerimeter=0;" parent="1" edge="1">
                    <mxGeometry width="50" height="50" relative="1" as="geometry">
                        <mxPoint x="1130" y="219" as="sourcePoint"/>
                        <mxPoint x="780.0042556213015" y="219.0091304347825" as="targetPoint"/>
                    </mxGeometry>
                </mxCell>
                <mxCell id="154" value="" style="group" parent="1" vertex="1" connectable="0">
                    <mxGeometry x="283" y="580" width="877.69" height="39.129999999999995" as="geometry"/>
                </mxCell>
                <mxCell id="142" value="" style="group" parent="154" vertex="1" connectable="0">
                    <mxGeometry width="825.42" height="39.13" as="geometry"/>
                </mxCell>
                <mxCell id="135" value="" style="pointerEvents=1;verticalLabelPosition=bottom;shadow=0;dashed=0;align=center;html=1;verticalAlign=top;shape=mxgraph.electrical.waveforms.pulse_2;container=0;" parent="142" vertex="1">
                    <mxGeometry x="102.41714285714292" width="117.91714285714286" height="39.12999999999995" as="geometry"/>
                </mxCell>
                <mxCell id="136" value="" style="pointerEvents=1;verticalLabelPosition=bottom;shadow=0;dashed=0;align=center;html=1;verticalAlign=top;shape=mxgraph.electrical.waveforms.pulse_2;container=0;" parent="142" vertex="1">
                    <mxGeometry x="205.83428571428573" width="117.91714285714286" height="39.12999999999995" as="geometry"/>
                </mxCell>
                <mxCell id="137" value="" style="pointerEvents=1;verticalLabelPosition=bottom;shadow=0;dashed=0;align=center;html=1;verticalAlign=top;shape=mxgraph.electrical.waveforms.pulse_2;container=0;" parent="142" vertex="1">
                    <mxGeometry x="615.5857142857141" width="117.91714285714286" height="39.12999999999995" as="geometry"/>
                </mxCell>
                <mxCell id="138" value="" style="pointerEvents=1;verticalLabelPosition=bottom;shadow=0;dashed=0;align=center;html=1;verticalAlign=top;shape=mxgraph.electrical.waveforms.pulse_2;container=0;" parent="142" vertex="1">
                    <mxGeometry x="718.5028571428571" width="117.91714285714286" height="39.12999999999995" as="geometry"/>
                </mxCell>
                <mxCell id="139" value="" style="pointerEvents=1;verticalLabelPosition=bottom;shadow=0;dashed=0;align=center;html=1;verticalAlign=top;shape=mxgraph.electrical.waveforms.pulse_2;container=0;" parent="142" vertex="1">
                    <mxGeometry x="511.66857142857145" width="117.91714285714286" height="39.12999999999995" as="geometry"/>
                </mxCell>
                <mxCell id="140" value="" style="pointerEvents=1;verticalLabelPosition=bottom;shadow=0;dashed=0;align=center;html=1;verticalAlign=top;shape=mxgraph.electrical.waveforms.pulse_2;container=0;" parent="142" vertex="1">
                    <mxGeometry width="117.91714285714286" height="39.12999999999995" as="geometry"/>
                </mxCell>
                <mxCell id="141" value="" style="pointerEvents=1;verticalLabelPosition=bottom;shadow=0;dashed=0;align=center;html=1;verticalAlign=top;shape=mxgraph.electrical.waveforms.pulse_2;container=0;" parent="142" vertex="1">
                    <mxGeometry x="309.75142857142856" width="117.91714285714286" height="39.12999999999995" as="geometry"/>
                </mxCell>
                <mxCell id="152" value="" style="pointerEvents=1;verticalLabelPosition=bottom;shadow=0;dashed=0;align=center;html=1;verticalAlign=top;shape=mxgraph.electrical.waveforms.pulse_2;container=0;" parent="142" vertex="1">
                    <mxGeometry x="410.0014285714285" width="117.91714285714286" height="39.12999999999995" as="geometry"/>
                </mxCell>
                <mxCell id="149" value="" style="pointerEvents=1;verticalLabelPosition=bottom;shadow=0;dashed=0;align=center;html=1;verticalAlign=top;shape=mxgraph.electrical.waveforms.step_2;fillOpacity=98;" parent="154" vertex="1">
                    <mxGeometry x="828.4200000000001" y="0.009999999999990905" width="49.27" height="39" as="geometry"/>
                </mxCell>
                <mxCell id="165" value="" style="endArrow=none;html=1;" edge="1" parent="1">
                    <mxGeometry width="50" height="50" relative="1" as="geometry">
                        <mxPoint x="1150.52" y="619.13" as="sourcePoint"/>
                        <mxPoint x="1180.52" y="619.13" as="targetPoint"/>
                        <Array as="points">
                            <mxPoint x="1160.52" y="619.13"/>
                        </Array>
                    </mxGeometry>
                </mxCell>
                <mxCell id="177" value="" style="pointerEvents=1;verticalLabelPosition=bottom;shadow=0;dashed=0;align=center;html=1;verticalAlign=top;shape=mxgraph.electrical.waveforms.step_2;" vertex="1" parent="1">
                    <mxGeometry x="1092" y="219.01000000000002" width="90" height="40.92" as="geometry"/>
                </mxCell>
                <mxCell id="179" value="" style="group" vertex="1" connectable="0" parent="1">
                    <mxGeometry x="250.35" y="619.13" width="943" height="160.87" as="geometry"/>
                </mxCell>
                <mxCell id="180" value="" style="group" vertex="1" connectable="0" parent="179">
                    <mxGeometry x="1" y="13" width="942" height="147.87" as="geometry"/>
                </mxCell>
                <mxCell id="167" value="" style="pointerEvents=1;verticalLabelPosition=bottom;shadow=0;dashed=0;align=center;html=1;verticalAlign=top;shape=mxgraph.electrical.waveforms.pulse_2;" vertex="1" parent="180">
                    <mxGeometry x="208.05" width="229.95" height="40" as="geometry"/>
                </mxCell>
                <mxCell id="171" value="" style="pointerEvents=1;verticalLabelPosition=bottom;shadow=0;dashed=0;align=center;html=1;verticalAlign=top;shape=mxgraph.electrical.waveforms.pulse_2;" vertex="1" parent="180">
                    <mxGeometry x="617.41" width="230.59" height="40" as="geometry"/>
                </mxCell>
                <mxCell id="172" value="" style="pointerEvents=1;verticalLabelPosition=bottom;shadow=0;dashed=0;align=center;html=1;verticalAlign=top;shape=mxgraph.electrical.waveforms.pulse_2;" vertex="1" parent="180">
                    <mxGeometry x="413.17999999999995" width="226.82" height="40" as="geometry"/>
                </mxCell>
                <mxCell id="174" value="" style="pointerEvents=1;verticalLabelPosition=bottom;shadow=0;dashed=0;align=center;html=1;verticalAlign=top;shape=mxgraph.electrical.waveforms.step_2;" vertex="1" parent="180">
                    <mxGeometry x="832" y="0.12999999999999545" width="110" height="40.87" as="geometry"/>
                </mxCell>
                <mxCell id="181" value="" style="pointerEvents=1;verticalLabelPosition=bottom;shadow=0;dashed=0;align=center;html=1;verticalAlign=top;shape=mxgraph.electrical.waveforms.step_2;" vertex="1" parent="180">
                    <mxGeometry x="31" y="49" width="70" height="39.87" as="geometry"/>
                </mxCell>
                <mxCell id="170" value="" style="pointerEvents=1;verticalLabelPosition=bottom;shadow=0;dashed=0;align=center;html=1;verticalAlign=top;shape=mxgraph.electrical.waveforms.pulse_2;" vertex="1" parent="180">
                    <mxGeometry x="350" y="48" width="457" height="40" as="geometry"/>
                </mxCell>
                <mxCell id="182" value="" style="pointerEvents=1;verticalLabelPosition=bottom;shadow=0;dashed=0;align=center;html=1;verticalAlign=top;shape=mxgraph.electrical.waveforms.step_1;" vertex="1" parent="180">
                    <mxGeometry x="228" y="47.87" width="90" height="41" as="geometry"/>
                </mxCell>
                <mxCell id="183" value="" style="endArrow=none;html=1;" edge="1" parent="180">
                    <mxGeometry width="50" height="50" relative="1" as="geometry">
                        <mxPoint x="79" y="89" as="sourcePoint"/>
                        <mxPoint x="257.37" y="89" as="targetPoint"/>
                    </mxGeometry>
                </mxCell>
                <mxCell id="184" value="" style="endArrow=none;html=1;" edge="1" parent="180">
                    <mxGeometry width="50" height="50" relative="1" as="geometry">
                        <mxPoint x="303" y="47.870000000000005" as="sourcePoint"/>
                        <mxPoint x="363" y="47.870000000000005" as="targetPoint"/>
                    </mxGeometry>
                </mxCell>
                <mxCell id="185" value="" style="pointerEvents=1;verticalLabelPosition=bottom;shadow=0;dashed=0;align=center;html=1;verticalAlign=top;shape=mxgraph.electrical.waveforms.step_2;" vertex="1" parent="180">
                    <mxGeometry x="842" y="47.87" width="90" height="40" as="geometry"/>
                </mxCell>
                <mxCell id="186" value="" style="endArrow=none;html=1;" edge="1" parent="180">
                    <mxGeometry width="50" height="50" relative="1" as="geometry">
                        <mxPoint x="786.14" y="47.870000000000005" as="sourcePoint"/>
                        <mxPoint x="847.9999999999999" y="47.870000000000005" as="targetPoint"/>
                    </mxGeometry>
                </mxCell>
                <mxCell id="187" value="" style="endArrow=none;html=1;" edge="1" parent="180">
                    <mxGeometry width="50" height="50" relative="1" as="geometry">
                        <mxPoint x="896.65" y="88" as="sourcePoint"/>
                        <mxPoint x="941.15" y="88" as="targetPoint"/>
                    </mxGeometry>
                </mxCell>
                <mxCell id="195" value="" style="pointerEvents=1;verticalLabelPosition=bottom;shadow=0;dashed=0;align=center;html=1;verticalAlign=top;shape=mxgraph.electrical.waveforms.step_1;" vertex="1" parent="180">
                    <mxGeometry x="116" y="0.13" width="102.65" height="39" as="geometry"/>
                </mxCell>
                <mxCell id="194" value="" style="pointerEvents=1;verticalLabelPosition=bottom;shadow=0;dashed=0;align=center;html=1;verticalAlign=top;shape=mxgraph.electrical.waveforms.step_2;" vertex="1" parent="180">
                    <mxGeometry x="31.00000000000003" y="-1" width="70" height="39.87" as="geometry"/>
                </mxCell>
                <mxCell id="193" value="" style="endArrow=none;html=1;" edge="1" parent="180">
                    <mxGeometry width="50" height="50" relative="1" as="geometry">
                        <mxPoint x="68.65" y="39" as="sourcePoint"/>
                        <mxPoint x="168.65" y="39" as="targetPoint"/>
                    </mxGeometry>
                </mxCell>
                <mxCell id="196" value="CL" style="text;html=1;align=center;verticalAlign=middle;resizable=0;points=[];autosize=1;strokeColor=none;fillColor=none;" vertex="1" parent="1">
                    <mxGeometry x="220" y="170" width="40" height="30" as="geometry"/>
                </mxCell>
                <mxCell id="197" value="L0" style="text;html=1;align=center;verticalAlign=middle;resizable=0;points=[];autosize=1;strokeColor=none;fillColor=none;" vertex="1" parent="1">
                    <mxGeometry x="220" y="224.47" width="40" height="30" as="geometry"/>
                </mxCell>
                <mxCell id="198" value="L3" style="text;html=1;align=center;verticalAlign=middle;resizable=0;points=[];autosize=1;strokeColor=none;fillColor=none;" vertex="1" parent="1">
                    <mxGeometry x="220" y="366.52" width="40" height="30" as="geometry"/>
                </mxCell>
                <mxCell id="199" value="L4" style="text;html=1;align=center;verticalAlign=middle;resizable=0;points=[];autosize=1;strokeColor=none;fillColor=none;" vertex="1" parent="1">
                    <mxGeometry x="220" y="405.65" width="40" height="30" as="geometry"/>
                </mxCell>
                <mxCell id="200" value="L5" style="text;html=1;align=center;verticalAlign=middle;resizable=0;points=[];autosize=1;strokeColor=none;fillColor=none;" vertex="1" parent="1">
                    <mxGeometry x="220" y="445.87" width="40" height="30" as="geometry"/>
                </mxCell>
                <mxCell id="201" value="L6" style="text;html=1;align=center;verticalAlign=middle;resizable=0;points=[];autosize=1;strokeColor=none;fillColor=none;" vertex="1" parent="1">
                    <mxGeometry x="220" y="490.65" width="40" height="30" as="geometry"/>
                </mxCell>
                <mxCell id="202" value="L2" style="text;html=1;align=center;verticalAlign=middle;resizable=0;points=[];autosize=1;strokeColor=none;fillColor=none;" vertex="1" parent="1">
                    <mxGeometry x="220" y="315.65" width="40" height="30" as="geometry"/>
                </mxCell>
                <mxCell id="203" value="L1" style="text;html=1;align=center;verticalAlign=middle;resizable=0;points=[];autosize=1;strokeColor=none;fillColor=none;" vertex="1" parent="1">
                    <mxGeometry x="220" y="266.3" width="40" height="30" as="geometry"/>
                </mxCell>
                <mxCell id="204" value="L7" style="text;html=1;align=center;verticalAlign=middle;resizable=0;points=[];autosize=1;strokeColor=none;fillColor=none;" vertex="1" parent="1">
                    <mxGeometry x="220" y="535.4300000000001" width="40" height="30" as="geometry"/>
                </mxCell>
                <mxCell id="205" value="&lt;span style=&quot;font-weight: 400;&quot;&gt;Q0&lt;/span&gt;" style="text;html=1;align=center;verticalAlign=middle;resizable=0;points=[];autosize=1;strokeColor=none;fillColor=none;fontStyle=1" vertex="1" parent="1">
                    <mxGeometry x="220" y="584.5" width="40" height="30" as="geometry"/>
                </mxCell>
                <mxCell id="207" value="&lt;span style=&quot;font-weight: 400;&quot;&gt;Q2&lt;/span&gt;" style="text;html=1;align=center;verticalAlign=middle;resizable=0;points=[];autosize=1;strokeColor=none;fillColor=none;fontStyle=1" vertex="1" parent="1">
                    <mxGeometry x="220" y="684.5699999999999" width="40" height="30" as="geometry"/>
                </mxCell>
                <mxCell id="206" value="&lt;span style=&quot;font-weight: 400;&quot;&gt;Q1&lt;/span&gt;" style="text;html=1;align=center;verticalAlign=middle;resizable=0;points=[];autosize=1;strokeColor=none;fillColor=none;fontStyle=1" vertex="1" parent="1">
                    <mxGeometry x="220" y="636.07" width="40" height="30" as="geometry"/>
                </mxCell>
            </root>
        </mxGraphModel>
    </diagram>
</mxfile>